<svg width="28" height="27" viewBox="0 0 28 27" fill="none" xmlns="http://www.w3.org/2000/svg">
<path d="M26.0263 10.3279V24.3739C26.0263 24.5021 25.9743 24.6314 25.8714 24.7315C25.7675 24.8327 25.6202 24.8947 25.4605 24.8947H18.6711C18.5113 24.8947 18.3641 24.8327 18.2602 24.7315C18.1573 24.6314 18.1053 24.5021 18.1053 24.3739V19.4165C18.1053 18.6681 17.7996 17.9568 17.2659 17.4372C16.7332 16.9186 16.017 16.6324 15.2763 16.6324H11.8816C11.1409 16.6324 10.4247 16.9186 9.89201 17.4372C9.35826 17.9568 9.05263 18.6681 9.05263 19.4165V24.3739C9.05263 24.5021 9.0006 24.6314 8.89771 24.7315C8.79379 24.8327 8.64654 24.8947 8.48684 24.8947H1.69737C1.53767 24.8947 1.39041 24.8327 1.2865 24.7315C1.18361 24.6314 1.13158 24.5021 1.13158 24.3739V10.3279C1.13158 10.2522 1.14961 10.1763 1.18578 10.1059C1.22203 10.0353 1.27616 9.97099 1.34623 9.91982L13.2278 1.24439C13.3259 1.17276 13.4491 1.13158 13.5789 1.13158C13.7088 1.13158 13.832 1.17276 13.9301 1.24439L25.8117 9.91982C25.8817 9.97099 25.9359 10.0353 25.9721 10.1059C26.0083 10.1763 26.0263 10.2522 26.0263 10.3279Z" stroke="white" stroke-width="2.26316" stroke-linecap="round" stroke-linejoin="round"/>
</svg>
