<svg width="26" height="27" viewBox="0 0 26 27" fill="none" xmlns="http://www.w3.org/2000/svg">
<mask id="path-1-outside-1_1_18" maskUnits="userSpaceOnUse" x="-0.342041" y="0" width="27" height="27" fill="black">
<rect fill="white" x="-0.342041" width="27" height="27"/>
<path fill-rule="evenodd" clip-rule="evenodd" d="M12.3347 3.39303C11.8766 3.9907 11.3604 4.91396 10.6093 6.26047L10.2291 6.94303L10.1605 7.06629C9.81166 7.6942 9.51517 8.22676 9.03962 8.58722C8.55942 8.95234 7.97342 9.08374 7.29207 9.23722L7.15952 9.26746L6.42003 9.4349C4.96083 9.76513 3.96671 9.99188 3.28769 10.2605C2.62378 10.5209 2.48425 10.7361 2.43077 10.907C2.3738 11.0884 2.37263 11.3663 2.76796 11.9965C3.17142 12.6361 3.8516 13.4337 4.84456 14.5965L5.34918 15.1861L5.43638 15.2872C5.90495 15.8337 6.29562 16.2896 6.47468 16.8663C6.65258 17.4396 6.59328 18.0407 6.52119 18.771L6.50956 18.907L6.43282 19.6942C6.28167 21.2431 6.18168 22.3105 6.2154 23.0779C6.25028 23.8454 6.41189 24.057 6.54096 24.1547C6.6549 24.2419 6.86651 24.3373 7.556 24.1396C8.25712 23.9396 9.18961 23.5128 10.5558 22.8838L11.2488 22.5652L11.3755 22.507C12.0092 22.2128 12.558 21.9593 13.1579 21.9593C13.7579 21.9593 14.3067 22.2128 14.9404 22.5059C14.9815 22.526 15.0241 22.5454 15.0683 22.564L15.7601 22.8838C17.1263 23.5128 18.0588 23.9396 18.7599 24.1396C19.4494 24.3373 19.661 24.2419 19.7749 24.1547C19.904 24.057 20.0656 23.8442 20.1005 23.0779C20.1354 22.3105 20.0331 21.2431 19.8831 19.6942L19.8063 18.907L19.7947 18.771C19.7226 18.0407 19.6633 17.4396 19.8412 16.8663C20.0203 16.2896 20.4109 15.8337 20.8795 15.2872L20.9667 15.1861L21.4713 14.5965C22.4643 13.4337 23.1445 12.6361 23.5468 11.9965C23.9433 11.3663 23.9421 11.0896 23.8851 10.907C23.8316 10.7361 23.6921 10.5209 23.0282 10.2605C22.348 9.99188 21.3551 9.76513 19.8959 9.4349L19.1564 9.26746L19.0238 9.23722C18.3425 9.08374 17.7565 8.95234 17.2763 8.58722C16.7996 8.22676 16.5054 7.69536 16.1554 7.06629L16.088 6.94303L15.7066 6.26047C14.9555 4.91396 14.4393 3.9907 13.9811 3.39303C13.523 2.79535 13.2905 2.74419 13.1579 2.74419C13.0254 2.74419 12.7917 2.79535 12.3347 3.39303ZM10.9511 2.33256C11.5034 1.6093 12.1882 1 13.1579 1C14.1277 1 14.8113 1.6093 15.3659 2.33256C15.9101 3.04419 16.488 4.08024 17.1937 5.34652L17.6111 6.0942C18.0669 6.9128 18.1844 7.08722 18.3309 7.19885C18.4704 7.30466 18.6529 7.36513 19.5401 7.56629L20.354 7.75001C21.7213 8.05931 22.848 8.31397 23.6677 8.63722C24.5188 8.97327 25.2641 9.46746 25.5513 10.3896C25.835 11.3023 25.5164 12.1419 25.0234 12.9244C24.5444 13.6861 23.7793 14.5814 22.8445 15.6744L22.2922 16.3198C21.6911 17.0221 21.5655 17.1942 21.5062 17.3838C21.4469 17.5779 21.4516 17.8024 21.5434 18.7384L21.626 19.5965C21.7678 21.057 21.8829 22.2477 21.8422 23.1547C21.8015 24.0791 21.5923 24.9652 20.8307 25.5442C20.054 26.1326 19.1506 26.0675 18.2785 25.8163C17.4332 25.5745 16.3798 25.0896 15.1008 24.5L14.3381 24.1489C13.5033 23.7652 13.3254 23.7035 13.1579 23.7035C12.9905 23.7035 12.8126 23.7652 11.9778 24.1489L11.2162 24.5C9.93607 25.0896 8.88266 25.5745 8.03737 25.8163C7.16533 26.0663 6.2619 26.1326 5.48638 25.5442C4.72364 24.9652 4.51435 24.0791 4.47365 23.1559C4.43296 22.2489 4.54807 21.057 4.68992 19.5977L4.77363 18.7384C4.86433 17.8012 4.86898 17.5779 4.80851 17.3838C4.75038 17.1942 4.62481 17.0233 4.02368 16.3198L3.4714 15.6744C2.53774 14.5814 1.77267 13.6861 1.29364 12.9256C0.799485 12.1419 0.480902 11.3023 0.764604 10.3896C1.05179 9.46746 1.79709 8.97327 2.6482 8.63722C3.46791 8.31397 4.59458 8.05931 5.96193 7.75001L6.03518 7.73373L6.77466 7.56629C7.66297 7.36513 7.84436 7.30466 7.98504 7.19769C8.13155 7.08722 8.24898 6.9128 8.70592 6.0942L9.12218 5.34652C9.82794 4.07908 10.4058 3.04419 10.95 2.33256"/>
</mask>
<path fill-rule="evenodd" clip-rule="evenodd" d="M12.3347 3.39303C11.8766 3.9907 11.3604 4.91396 10.6093 6.26047L10.2291 6.94303L10.1605 7.06629C9.81166 7.6942 9.51517 8.22676 9.03962 8.58722C8.55942 8.95234 7.97342 9.08374 7.29207 9.23722L7.15952 9.26746L6.42003 9.4349C4.96083 9.76513 3.96671 9.99188 3.28769 10.2605C2.62378 10.5209 2.48425 10.7361 2.43077 10.907C2.3738 11.0884 2.37263 11.3663 2.76796 11.9965C3.17142 12.6361 3.8516 13.4337 4.84456 14.5965L5.34918 15.1861L5.43638 15.2872C5.90495 15.8337 6.29562 16.2896 6.47468 16.8663C6.65258 17.4396 6.59328 18.0407 6.52119 18.771L6.50956 18.907L6.43282 19.6942C6.28167 21.2431 6.18168 22.3105 6.2154 23.0779C6.25028 23.8454 6.41189 24.057 6.54096 24.1547C6.6549 24.2419 6.86651 24.3373 7.556 24.1396C8.25712 23.9396 9.18961 23.5128 10.5558 22.8838L11.2488 22.5652L11.3755 22.507C12.0092 22.2128 12.558 21.9593 13.1579 21.9593C13.7579 21.9593 14.3067 22.2128 14.9404 22.5059C14.9815 22.526 15.0241 22.5454 15.0683 22.564L15.7601 22.8838C17.1263 23.5128 18.0588 23.9396 18.7599 24.1396C19.4494 24.3373 19.661 24.2419 19.7749 24.1547C19.904 24.057 20.0656 23.8442 20.1005 23.0779C20.1354 22.3105 20.0331 21.2431 19.8831 19.6942L19.8063 18.907L19.7947 18.771C19.7226 18.0407 19.6633 17.4396 19.8412 16.8663C20.0203 16.2896 20.4109 15.8337 20.8795 15.2872L20.9667 15.1861L21.4713 14.5965C22.4643 13.4337 23.1445 12.6361 23.5468 11.9965C23.9433 11.3663 23.9421 11.0896 23.8851 10.907C23.8316 10.7361 23.6921 10.5209 23.0282 10.2605C22.348 9.99188 21.3551 9.76513 19.8959 9.4349L19.1564 9.26746L19.0238 9.23722C18.3425 9.08374 17.7565 8.95234 17.2763 8.58722C16.7996 8.22676 16.5054 7.69536 16.1554 7.06629L16.088 6.94303L15.7066 6.26047C14.9555 4.91396 14.4393 3.9907 13.9811 3.39303C13.523 2.79535 13.2905 2.74419 13.1579 2.74419C13.0254 2.74419 12.7917 2.79535 12.3347 3.39303ZM10.9511 2.33256C11.5034 1.6093 12.1882 1 13.1579 1C14.1277 1 14.8113 1.6093 15.3659 2.33256C15.9101 3.04419 16.488 4.08024 17.1937 5.34652L17.6111 6.0942C18.0669 6.9128 18.1844 7.08722 18.3309 7.19885C18.4704 7.30466 18.6529 7.36513 19.5401 7.56629L20.354 7.75001C21.7213 8.05931 22.848 8.31397 23.6677 8.63722C24.5188 8.97327 25.2641 9.46746 25.5513 10.3896C25.835 11.3023 25.5164 12.1419 25.0234 12.9244C24.5444 13.6861 23.7793 14.5814 22.8445 15.6744L22.2922 16.3198C21.6911 17.0221 21.5655 17.1942 21.5062 17.3838C21.4469 17.5779 21.4516 17.8024 21.5434 18.7384L21.626 19.5965C21.7678 21.057 21.8829 22.2477 21.8422 23.1547C21.8015 24.0791 21.5923 24.9652 20.8307 25.5442C20.054 26.1326 19.1506 26.0675 18.2785 25.8163C17.4332 25.5745 16.3798 25.0896 15.1008 24.5L14.3381 24.1489C13.5033 23.7652 13.3254 23.7035 13.1579 23.7035C12.9905 23.7035 12.8126 23.7652 11.9778 24.1489L11.2162 24.5C9.93607 25.0896 8.88266 25.5745 8.03737 25.8163C7.16533 26.0663 6.2619 26.1326 5.48638 25.5442C4.72364 24.9652 4.51435 24.0791 4.47365 23.1559C4.43296 22.2489 4.54807 21.057 4.68992 19.5977L4.77363 18.7384C4.86433 17.8012 4.86898 17.5779 4.80851 17.3838C4.75038 17.1942 4.62481 17.0233 4.02368 16.3198L3.4714 15.6744C2.53774 14.5814 1.77267 13.6861 1.29364 12.9256C0.799485 12.1419 0.480902 11.3023 0.764604 10.3896C1.05179 9.46746 1.79709 8.97327 2.6482 8.63722C3.46791 8.31397 4.59458 8.05931 5.96193 7.75001L6.03518 7.73373L6.77466 7.56629C7.66297 7.36513 7.84436 7.30466 7.98504 7.19769C8.13155 7.08722 8.24898 6.9128 8.70592 6.0942L9.12218 5.34652C9.82794 4.07908 10.4058 3.04419 10.95 2.33256" fill="white"/>
<path d="M12.3347 3.39303L12.4935 3.5147L12.4936 3.5145L12.3347 3.39303ZM10.6093 6.26047L10.4346 6.16304L10.4346 6.16315L10.6093 6.26047ZM10.2291 6.94303L10.0544 6.84571L10.0543 6.84577L10.2291 6.94303ZM10.1605 7.06629L9.98572 6.96903L9.98564 6.96917L10.1605 7.06629ZM9.03962 8.58722L8.91881 8.42784L8.91857 8.42802L9.03962 8.58722ZM7.29207 9.23722L7.24811 9.04211L7.24759 9.04223L7.29207 9.23722ZM7.15952 9.26746L7.20369 9.46252L7.20399 9.46245L7.15952 9.26746ZM6.42003 9.4349L6.46418 9.62997L6.4642 9.62996L6.42003 9.4349ZM3.28769 10.2605L3.36073 10.4467L3.36126 10.4465L3.28769 10.2605ZM2.43077 10.907L2.62158 10.9669L2.62164 10.9667L2.43077 10.907ZM2.76796 11.9965L2.59853 12.1028L2.5988 12.1032L2.76796 11.9965ZM4.84456 14.5965L4.69247 14.7264L4.69262 14.7266L4.84456 14.5965ZM5.34918 15.1861L5.19723 15.3161L5.19769 15.3167L5.34918 15.1861ZM5.43638 15.2872L5.58821 15.1571L5.58787 15.1567L5.43638 15.2872ZM6.47468 16.8663L6.66569 16.807L6.66569 16.807L6.47468 16.8663ZM6.52119 18.771L6.32214 18.7513L6.32192 18.7539L6.52119 18.771ZM6.50956 18.907L6.70863 18.9264L6.70884 18.924L6.50956 18.907ZM6.43282 19.6942L6.63188 19.7136L6.63188 19.7136L6.43282 19.6942ZM6.2154 23.0779L6.01559 23.0867L6.0156 23.087L6.2154 23.0779ZM6.54096 24.1547L6.66251 23.9959L6.66165 23.9952L6.54096 24.1547ZM7.556 24.1396L7.50114 23.9472L7.50088 23.9473L7.556 24.1396ZM10.5558 22.8838L10.4723 22.702L10.4721 22.7021L10.5558 22.8838ZM11.2488 22.5652L11.1654 22.3834L11.1652 22.3834L11.2488 22.5652ZM11.3755 22.507L11.4589 22.6888L11.4597 22.6884L11.3755 22.507ZM14.9404 22.5059L15.0285 22.3263L15.0243 22.3243L14.9404 22.5059ZM15.0683 22.564L15.1522 22.3823L15.1459 22.3797L15.0683 22.564ZM15.7601 22.8838L15.6762 23.0653L15.6764 23.0654L15.7601 22.8838ZM18.7599 24.1396L18.815 23.9473L18.8148 23.9472L18.7599 24.1396ZM19.7749 24.1547L19.6542 23.9952L19.6534 23.9959L19.7749 24.1547ZM20.1005 23.0779L20.3003 23.087V23.087L20.1005 23.0779ZM19.8831 19.6942L20.0821 19.6749L20.0821 19.6748L19.8831 19.6942ZM19.8063 18.907L19.607 18.924L19.6073 18.9264L19.8063 18.907ZM19.7947 18.771L19.994 18.7539L19.9937 18.7513L19.7947 18.771ZM19.8412 16.8663L19.6502 16.807L19.6502 16.807L19.8412 16.8663ZM20.8795 15.2872L20.728 15.1567L20.7277 15.1571L20.8795 15.2872ZM20.9667 15.1861L21.1182 15.3167L21.1187 15.3161L20.9667 15.1861ZM21.4713 14.5965L21.6233 14.7266L21.6234 14.7264L21.4713 14.5965ZM23.5468 11.9965L23.3775 11.89L23.3775 11.89L23.5468 11.9965ZM23.8851 10.907L24.076 10.8474L24.076 10.8473L23.8851 10.907ZM23.0282 10.2605L22.9548 10.4465L22.9552 10.4467L23.0282 10.2605ZM19.8959 9.4349L19.8517 9.62996L19.8517 9.62997L19.8959 9.4349ZM19.1564 9.26746L19.1119 9.46245L19.1122 9.46252L19.1564 9.26746ZM19.0238 9.23722L19.0683 9.04223L19.0678 9.04211L19.0238 9.23722ZM17.2763 8.58722L17.3973 8.42802L17.3969 8.4277L17.2763 8.58722ZM16.1554 7.06629L15.98 7.16229L15.9806 7.16352L16.1554 7.06629ZM16.088 6.94303L16.2634 6.84703L16.2626 6.84548L16.088 6.94303ZM15.7066 6.26047L15.5319 6.35791L15.532 6.35803L15.7066 6.26047ZM15.3659 2.33256L15.5248 2.21108L15.5246 2.21086L15.3659 2.33256ZM17.1937 5.34652L17.019 5.44389L17.0191 5.44401L17.1937 5.34652ZM17.6111 6.0942L17.7859 5.9969L17.7858 5.9967L17.6111 6.0942ZM18.3309 7.19885L18.2096 7.35793L18.21 7.3582L18.3309 7.19885ZM19.5401 7.56629L19.4958 7.76134L19.496 7.76138L19.5401 7.56629ZM20.354 7.75001L20.3981 7.55494L20.398 7.55492L20.354 7.75001ZM23.6677 8.63722L23.7411 8.4512L23.7411 8.45117L23.6677 8.63722ZM25.5513 10.3896L25.7423 10.3302L25.7422 10.3301L25.5513 10.3896ZM25.0234 12.9244L24.8542 12.8178L24.8541 12.818L25.0234 12.9244ZM22.8445 15.6744L22.9965 15.8045L22.9965 15.8044L22.8445 15.6744ZM22.2922 16.3198L22.4442 16.4498L22.4442 16.4498L22.2922 16.3198ZM21.5062 17.3838L21.3153 17.324L21.3149 17.3253L21.5062 17.3838ZM21.5434 18.7384L21.7425 18.7193L21.7425 18.7189L21.5434 18.7384ZM21.626 19.5965L21.4269 19.6157L21.4269 19.6159L21.626 19.5965ZM21.8422 23.1547L21.6424 23.1457L21.6424 23.1459L21.8422 23.1547ZM20.8307 25.5442L20.9515 25.7037L20.9517 25.7034L20.8307 25.5442ZM18.2785 25.8163L18.3339 25.6241L18.3335 25.624L18.2785 25.8163ZM15.1008 24.5L15.1846 24.3184L15.1845 24.3184L15.1008 24.5ZM14.3381 24.1489L14.4217 23.9672L14.4216 23.9672L14.3381 24.1489ZM11.9778 24.1489L11.8943 23.9672L11.894 23.9673L11.9778 24.1489ZM11.2162 24.5L11.2999 24.6817L11.3 24.6817L11.2162 24.5ZM8.03737 25.8163L7.98235 25.624L7.98225 25.6241L8.03737 25.8163ZM5.48638 25.5442L5.36544 25.7035L5.36549 25.7036L5.48638 25.5442ZM4.47365 23.1559L4.67346 23.147L4.67345 23.1469L4.47365 23.1559ZM4.68992 19.5977L4.49086 19.5783L4.49086 19.5784L4.68992 19.5977ZM4.77363 18.7384L4.97269 18.7578L4.9727 18.7577L4.77363 18.7384ZM4.80851 17.3838L4.61731 17.4424L4.61756 17.4432L4.80851 17.3838ZM4.02368 16.3198L4.17574 16.1899L4.17564 16.1898L4.02368 16.3198ZM3.4714 15.6744L3.31932 15.8043L3.31944 15.8045L3.4714 15.6744ZM1.29364 12.9256L1.46286 12.819L1.46282 12.8189L1.29364 12.9256ZM0.764604 10.3896L0.573651 10.3301L0.573616 10.3302L0.764604 10.3896ZM2.6482 8.63722L2.57482 8.45117L2.57475 8.4512L2.6482 8.63722ZM5.96193 7.75001L5.91854 7.55477L5.9178 7.55494L5.96193 7.75001ZM6.03518 7.73373L6.07857 7.92897L6.07934 7.92879L6.03518 7.73373ZM6.77466 7.56629L6.81883 7.76135L6.81883 7.76135L6.77466 7.56629ZM7.98504 7.19769L7.86463 7.03799L7.86399 7.03848L7.98504 7.19769ZM8.70592 6.0942L8.88056 6.19168L8.88067 6.19148L8.70592 6.0942ZM9.12218 5.34652L8.94744 5.24922L8.94743 5.24923L9.12218 5.34652ZM12.176 3.27136C11.7068 3.88349 11.1823 4.82273 10.4346 6.16304L10.7839 6.35791C11.5385 5.00519 12.0465 4.09792 12.4935 3.5147L12.176 3.27136ZM10.4346 6.16315L10.0544 6.84571L10.4038 7.04036L10.784 6.3578L10.4346 6.16315ZM10.0543 6.84577L9.98572 6.96903L10.3352 7.16355L10.4038 7.0403L10.0543 6.84577ZM9.98564 6.96917C9.63189 7.60597 9.35456 8.09754 8.91881 8.42784L9.16044 8.74661C9.67578 8.35598 9.99144 7.78243 10.3353 7.16341L9.98564 6.96917ZM8.91857 8.42802C8.4793 8.76201 7.9392 8.88643 7.24811 9.04211L7.33602 9.43233C8.00764 9.28104 8.63955 9.14266 9.16067 8.74643L8.91857 8.42802ZM7.24759 9.04223L7.11504 9.07246L7.20399 9.46245L7.33654 9.43222L7.24759 9.04223ZM7.11535 9.07239L6.37587 9.23984L6.4642 9.62996L7.20369 9.46252L7.11535 9.07239ZM6.37589 9.23983C4.92389 9.56843 3.9111 9.79879 3.21412 10.0745L3.36126 10.4465C4.02232 10.185 4.99777 9.96183 6.46418 9.62997L6.37589 9.23983ZM3.21464 10.0743C2.872 10.2087 2.648 10.3376 2.4995 10.466C2.34473 10.5999 2.2769 10.729 2.2399 10.8473L2.62164 10.9667C2.63812 10.9141 2.6668 10.8502 2.76114 10.7686C2.86176 10.6816 3.03947 10.5727 3.36073 10.4467L3.21464 10.0743ZM2.23996 10.8471C2.15673 11.112 2.19185 11.4545 2.59853 12.1028L2.93738 11.8903C2.55342 11.2781 2.59086 11.0647 2.62158 10.9669L2.23996 10.8471ZM2.5988 12.1032C3.0119 12.758 3.70405 13.5689 4.69247 14.7264L4.99665 14.4667C3.99916 13.2986 3.33094 12.5141 2.93711 11.8898L2.5988 12.1032ZM4.69262 14.7266L5.19724 15.3161L5.50112 15.056L4.9965 14.4665L4.69262 14.7266ZM5.19769 15.3167L5.28489 15.4178L5.58787 15.1567L5.50066 15.0555L5.19769 15.3167ZM5.28455 15.4174C5.75928 15.9711 6.11911 16.3955 6.28367 16.9256L6.66569 16.807C6.47214 16.1836 6.05062 15.6964 5.58821 15.1571L5.28455 15.4174ZM6.28367 16.9256C6.44734 17.453 6.3952 18.0114 6.32216 18.7513L6.72022 18.7906C6.79135 18.0701 6.85781 17.4261 6.66569 16.807L6.28367 16.9256ZM6.32192 18.7539L6.31029 18.89L6.70884 18.924L6.72046 18.788L6.32192 18.7539ZM6.31051 18.8876L6.23377 19.6748L6.63188 19.7136L6.70862 18.9264L6.31051 18.8876ZM6.23377 19.6748C6.08322 21.2174 5.9811 22.3017 6.01559 23.0867L6.4152 23.0692C6.38226 22.3193 6.48012 21.2687 6.63188 19.7136L6.23377 19.6748ZM6.0156 23.087C6.05133 23.8731 6.21881 24.1617 6.42026 24.3142L6.66165 23.9952C6.60498 23.9523 6.44922 23.8176 6.41519 23.0689L6.0156 23.087ZM6.4194 24.3135C6.5052 24.3792 6.62381 24.4407 6.8196 24.4535C7.00537 24.4657 7.2557 24.4337 7.61112 24.3318L7.50088 23.9473C7.16682 24.0431 6.9666 24.0623 6.8457 24.0544C6.73482 24.0471 6.69065 24.0174 6.66251 23.9959L6.4194 24.3135ZM7.61087 24.3319C8.33048 24.1266 9.27989 23.6914 10.6394 23.0654L10.4721 22.7021C9.09934 23.3342 8.18376 23.7525 7.50114 23.9472L7.61087 24.3319ZM10.6393 23.0655L11.3323 22.7469L11.1652 22.3834L10.4723 22.702L10.6393 23.0655ZM11.3322 22.7469L11.4589 22.6888L11.2921 22.3252L11.1654 22.3834L11.3322 22.7469ZM11.4597 22.6884C12.1024 22.3901 12.6101 22.1593 13.1579 22.1593V21.7593C12.5059 21.7593 11.916 22.0356 11.2913 22.3256L11.4597 22.6884ZM13.1579 22.1593C13.7059 22.1593 14.2136 22.3901 14.8564 22.6874L15.0243 22.3243C14.3998 22.0356 13.8099 21.7593 13.1579 21.7593V22.1593ZM14.8523 22.6854C14.897 22.7073 14.9431 22.7283 14.9907 22.7483L15.1459 22.3797C15.1051 22.3625 15.066 22.3447 15.0285 22.3263L14.8523 22.6854ZM14.9844 22.7455L15.6762 23.0653L15.844 22.7022L15.1522 22.3824L14.9844 22.7455ZM15.6764 23.0654C17.036 23.6914 17.9854 24.1266 18.705 24.3319L18.8148 23.9472C18.1321 23.7525 17.2166 23.3342 15.8437 22.7021L15.6764 23.0654ZM18.7048 24.3318C19.0602 24.4337 19.3105 24.4657 19.4963 24.4535C19.6921 24.4407 19.8107 24.3792 19.8965 24.3135L19.6534 23.9959C19.6252 24.0174 19.5811 24.0471 19.4702 24.0544C19.3493 24.0623 19.1491 24.0431 18.815 23.9473L18.7048 24.3318ZM19.8956 24.3142C20.0971 24.1617 20.2646 23.8719 20.3003 23.087L19.9007 23.0689C19.8667 23.8166 19.7109 23.9524 19.6542 23.9952L19.8956 24.3142ZM20.3003 23.087C20.336 22.3018 20.2315 21.2169 20.0821 19.6749L19.684 19.7135C19.8347 21.2692 19.9348 22.3192 19.9007 23.0689L20.3003 23.087ZM20.0821 19.6748L20.0054 18.8876L19.6073 18.9264L19.684 19.7136L20.0821 19.6748ZM20.0056 18.89L19.994 18.7539L19.5954 18.788L19.6071 18.924L20.0056 18.89ZM19.9937 18.7513C19.9207 18.0114 19.8686 17.453 20.0322 16.9256L19.6502 16.807C19.4581 17.4261 19.5245 18.0701 19.5957 18.7906L19.9937 18.7513ZM20.0322 16.9256C20.1968 16.3955 20.5566 15.9711 21.0314 15.4174L20.7277 15.1571C20.2653 15.6964 19.8438 16.1836 19.6502 16.807L20.0322 16.9256ZM21.031 15.4178L21.1182 15.3167L20.8152 15.0555L20.728 15.1567L21.031 15.4178ZM21.1187 15.3161L21.6233 14.7266L21.3194 14.4665L20.8148 15.056L21.1187 15.3161ZM21.6234 14.7264C22.6118 13.569 23.3041 12.758 23.7161 12.103L23.3775 11.89C22.9849 12.5142 22.3168 13.2985 21.3192 14.4667L21.6234 14.7264ZM23.7161 12.103C24.124 11.4546 24.1591 11.1134 24.076 10.8474L23.6942 10.9666C23.7251 11.0657 23.7625 11.278 23.3775 11.89L23.7161 12.103ZM24.076 10.8473C24.039 10.729 23.9712 10.5999 23.8164 10.466C23.6679 10.3376 23.4439 10.2087 23.1013 10.0743L22.9552 10.4467C23.2764 10.5727 23.4541 10.6816 23.5548 10.7686C23.6491 10.8502 23.6778 10.9141 23.6943 10.9667L24.076 10.8473ZM23.1017 10.0745C22.4036 9.7988 21.3921 9.56846 19.94 9.23983L19.8517 9.62997C21.318 9.96181 22.2924 10.185 22.9548 10.4465L23.1017 10.0745ZM19.94 9.23984L19.2005 9.07239L19.1122 9.46252L19.8517 9.62996L19.94 9.23984ZM19.2009 9.07246L19.0683 9.04223L18.9794 9.43222L19.1119 9.46245L19.2009 9.07246ZM19.0678 9.04211C18.3767 8.88643 17.8366 8.76201 17.3973 8.42802L17.1552 8.74643C17.6763 9.14266 18.3083 9.28104 18.9799 9.43233L19.0678 9.04211ZM17.3969 8.4277C16.9602 8.09748 16.6854 7.60748 16.3302 6.96906L15.9806 7.16352C16.3254 7.78324 16.6389 8.35603 17.1556 8.74675L17.3969 8.4277ZM16.3309 6.97029L16.2634 6.84704L15.9125 7.03903L15.98 7.16229L16.3309 6.97029ZM16.2626 6.84548L15.8812 6.16292L15.532 6.35803L15.9134 7.04059L16.2626 6.84548ZM15.8813 6.16304C15.1336 4.82273 14.6091 3.88349 14.1399 3.27136L13.8224 3.5147C14.2694 4.09792 14.7774 5.00519 15.5319 6.35791L15.8813 6.16304ZM14.1399 3.27136C13.9042 2.96386 13.7159 2.78248 13.558 2.67779C13.3923 2.56794 13.2624 2.54419 13.1579 2.54419V2.94419C13.1861 2.94419 13.2387 2.94602 13.3369 3.01117C13.443 3.08148 13.6 3.22452 13.8224 3.5147L14.1399 3.27136ZM13.1579 2.54419C13.0536 2.54419 12.9234 2.56788 12.7576 2.67774C12.5994 2.78248 12.4111 2.96394 12.1759 3.27155L12.4936 3.5145C12.7154 3.22444 12.8724 3.08148 12.9784 3.01122C13.0768 2.94608 13.1297 2.94419 13.1579 2.94419V2.54419ZM11.1101 2.45394C11.6515 1.74494 12.2845 1.2 13.1579 1.2V0.8C12.092 0.8 11.3553 1.47367 10.7922 2.21118L11.1101 2.45394ZM13.1579 1.2C14.0313 1.2 14.6632 1.74483 15.2072 2.45426L15.5246 2.21086C14.9594 1.47378 14.224 0.8 13.1579 0.8V1.2ZM15.2071 2.45405C15.7404 3.15147 16.3103 4.17237 17.019 5.44389L17.3684 5.24915C16.6656 3.98811 16.0798 2.9369 15.5248 2.21108L15.2071 2.45405ZM17.0191 5.44401L17.4365 6.19169L17.7858 5.9967L17.3683 5.24903L17.0191 5.44401ZM17.4364 6.19149C17.6638 6.59989 17.8104 6.85434 17.9196 7.02116C18.0306 7.19075 18.1112 7.28291 18.2096 7.35793L18.4521 7.03977C18.404 7.00316 18.3526 6.9523 18.2543 6.80211C18.1542 6.64916 18.0143 6.40711 17.7859 5.9969L17.4364 6.19149ZM18.21 7.3582C18.3053 7.43051 18.4101 7.48073 18.5963 7.53798C18.7786 7.59403 19.0533 7.66099 19.4958 7.76134L19.5843 7.37124C19.1397 7.27043 18.8795 7.20657 18.7139 7.15565C18.5522 7.10592 18.4959 7.073 18.4517 7.03949L18.21 7.3582ZM19.496 7.76138L20.3099 7.9451L20.398 7.55492L19.5841 7.3712L19.496 7.76138ZM20.3098 7.94508C21.6834 8.25579 22.7923 8.50698 23.5943 8.82328L23.7411 8.45117C22.9037 8.12095 21.7593 7.86284 20.3981 7.55494L20.3098 7.94508ZM23.5942 8.82325C24.4245 9.15107 25.1 9.61329 25.3603 10.449L25.7422 10.3301C25.4282 9.32163 24.6131 8.79547 23.7411 8.4512L23.5942 8.82325ZM25.3603 10.4489C25.6179 11.2776 25.3363 12.0526 24.8542 12.8178L25.1926 13.031C25.6965 12.2312 26.0521 11.3271 25.7423 10.3302L25.3603 10.4489ZM24.8541 12.818C24.3847 13.5643 23.6312 14.4469 22.6925 15.5445L22.9965 15.8044C23.9275 14.7159 24.7041 13.8078 25.1927 13.0309L24.8541 12.818ZM22.6925 15.5444L22.1403 16.1898L22.4442 16.4498L22.9965 15.8045L22.6925 15.5444ZM22.1403 16.1897C21.8405 16.54 21.654 16.7641 21.5351 16.9254C21.4137 17.09 21.354 17.2005 21.3153 17.324L21.6971 17.4435C21.7177 17.3775 21.7505 17.3072 21.857 17.1628C21.9659 17.0151 22.1428 16.8019 22.4442 16.4498L22.1403 16.1897ZM21.3149 17.3253C21.2767 17.4506 21.2627 17.5789 21.2682 17.7882C21.2737 17.9938 21.2986 18.291 21.3444 18.7579L21.7425 18.7189C21.6964 18.2498 21.6731 17.9667 21.6681 17.7776C21.6632 17.5921 21.6765 17.511 21.6975 17.4422L21.3149 17.3253ZM21.3443 18.7576L21.4269 19.6157L21.8251 19.5774L21.7425 18.7193L21.3443 18.7576ZM21.4269 19.6159C21.5693 21.0821 21.6824 22.2563 21.6424 23.1457L22.042 23.1637C22.0835 22.2392 21.9663 21.0319 21.825 19.5772L21.4269 19.6159ZM21.6424 23.1459C21.6025 24.0528 21.3985 24.8612 20.7096 25.385L20.9517 25.7034C21.786 25.0691 22.0006 24.1055 22.042 23.1635L21.6424 23.1459ZM20.7099 25.3848C20.0093 25.9156 19.1852 25.8693 18.3339 25.6241L18.2232 26.0085C19.1159 26.2656 20.0987 26.3496 20.9515 25.7037L20.7099 25.3848ZM18.3335 25.624C17.5065 25.3874 16.4692 24.9106 15.1846 24.3184L15.0171 24.6817C16.2904 25.2686 17.36 25.7615 18.2235 26.0086L18.3335 25.624ZM15.1845 24.3184L14.4217 23.9672L14.2545 24.3306L15.0172 24.6817L15.1845 24.3184ZM14.4216 23.9672C14.0052 23.7757 13.7454 23.6613 13.5677 23.5949C13.3865 23.5273 13.2749 23.5035 13.1579 23.5035V23.9035C13.2084 23.9035 13.2695 23.9106 13.4278 23.9697C13.5896 24.0301 13.8362 24.1383 14.2546 24.3306L14.4216 23.9672ZM13.1579 23.5035C13.041 23.5035 12.9294 23.5273 12.7482 23.5949C12.5705 23.6613 12.3107 23.7757 11.8943 23.9672L12.0613 24.3306C12.4797 24.1383 12.7263 24.0301 12.8881 23.9697C13.0464 23.9106 13.1075 23.9035 13.1579 23.9035V23.5035ZM11.894 23.9673L11.1325 24.3184L11.3 24.6817L12.0615 24.3305L11.894 23.9673ZM11.1326 24.3184C9.84667 24.9106 8.80944 25.3874 7.98235 25.624L8.09238 26.0086C8.95588 25.7615 10.0255 25.2686 11.2999 24.6817L11.1326 24.3184ZM7.98225 25.6241C7.13044 25.8683 6.30659 25.9155 5.60726 25.3849L5.36549 25.7036C6.21721 26.3497 7.20022 26.2644 8.09248 26.0086L7.98225 25.6241ZM5.60731 25.3849C4.91736 24.8611 4.71338 24.0527 4.67346 23.147L4.27385 23.1647C4.31532 24.1055 4.52991 25.0692 5.36544 25.7035L5.60731 25.3849ZM4.67345 23.1469C4.63354 22.2574 4.74657 21.0821 4.88898 19.6171L4.49086 19.5784C4.34957 21.0319 4.23237 22.2403 4.27386 23.1648L4.67345 23.1469ZM4.88898 19.6171L4.97269 18.7578L4.57458 18.719L4.49086 19.5783L4.88898 19.6171ZM4.9727 18.7577C5.01794 18.2902 5.04254 17.993 5.04769 17.7875C5.05294 17.5782 5.03858 17.4499 4.99947 17.3243L4.61756 17.4432C4.63891 17.5118 4.65246 17.5922 4.64782 17.7774C4.64309 17.9664 4.62002 18.2494 4.57456 18.7191L4.9727 18.7577ZM4.99972 17.3251C4.96162 17.2009 4.90192 17.0903 4.7807 16.9258C4.6619 16.7647 4.47543 16.5406 4.17574 16.1899L3.87163 16.4497C4.17306 16.8025 4.34994 17.0156 4.45874 17.1632C4.56512 17.3075 4.59727 17.3771 4.61731 17.4424L4.99972 17.3251ZM4.17564 16.1898L3.62335 15.5444L3.31944 15.8045L3.87173 16.4498L4.17564 16.1898ZM3.62347 15.5445C2.68591 14.4469 1.93234 13.5643 1.46286 12.819L1.12441 13.0322C1.61301 13.8078 2.38957 14.7159 3.31932 15.8043L3.62347 15.5445ZM1.46282 12.8189C0.979574 12.0525 0.698032 11.2776 0.955591 10.4489L0.573616 10.3302C0.263771 11.3271 0.619396 12.2312 1.12446 13.0323L1.46282 12.8189ZM0.955556 10.449C1.21585 9.61329 1.89138 9.15107 2.72165 8.82325L2.57475 8.4512C1.7028 8.79547 0.887736 9.32163 0.573651 10.3301L0.955556 10.449ZM2.72157 8.82328C3.52363 8.50698 4.63251 8.25579 6.00605 7.94508L5.9178 7.55494C4.55664 7.86284 3.41218 8.12095 2.57482 8.45117L2.72157 8.82328ZM6.00531 7.94525L6.07856 7.92897L5.99179 7.5385L5.91854 7.55478L6.00531 7.94525ZM6.07934 7.92879L6.81883 7.76135L6.73049 7.37123L5.99101 7.53867L6.07934 7.92879ZM6.81883 7.76135C7.26197 7.661 7.53672 7.59403 7.71913 7.53779C7.90571 7.48027 8.01035 7.42969 8.1061 7.35689L7.86399 7.03848C7.81905 7.07266 7.76265 7.1058 7.60129 7.15554C7.43576 7.20658 7.17567 7.27042 6.73049 7.37123L6.81883 7.76135ZM8.10545 7.35738C8.20441 7.28276 8.28518 7.19058 8.3963 7.0212C8.50564 6.85452 8.65261 6.60004 8.88056 6.19168L8.53129 5.99671C8.30229 6.40695 8.16208 6.64899 8.06184 6.80179C7.96338 6.95188 7.91218 7.00214 7.86463 7.03799L8.10545 7.35738ZM8.88067 6.19148L9.29692 5.4438L8.94743 5.24923L8.53118 5.99691L8.88067 6.19148ZM9.29691 5.44382C10.0055 4.17129 10.5755 3.15147 11.1088 2.45405L10.7911 2.21108C10.2361 2.93691 9.65037 3.98686 8.94744 5.24922L9.29691 5.44382Z" fill="white" mask="url(#path-1-outside-1_1_18)"/>
</svg>
