<svg width="22" height="27" viewBox="0 0 22 27" fill="none" xmlns="http://www.w3.org/2000/svg">
<path d="M1.82031 22.0584L1.82039 22.0585C3.77268 24.2742 6.78513 25.419 10.9033 25.419C15.0208 25.419 18.0351 24.2745 19.993 22.0609L1.82031 22.0584ZM1.82031 22.0584C1.13799 21.2843 0.765552 20.3033 0.765274 19.292C0.765274 19.2919 0.765274 19.2919 0.765274 19.2918L0.765274 18.5399C0.765274 18.5399 0.765274 18.5398 0.765274 18.5398C0.765274 18.5398 0.765274 18.5397 0.765274 18.5396C0.76563 17.9308 1.01531 17.343 1.46608 16.9064C1.91752 16.4692 2.53372 16.2201 3.18024 16.2197C3.18033 16.2197 3.18042 16.2197 3.1805 16.2197H18.6365C19.2831 16.2203 19.8993 16.4696 20.3506 16.9071M1.82031 22.0584L20.3506 16.9071M20.3506 16.9071C20.8012 17.344 21.0506 17.9321 21.0506 18.541M20.3506 16.9071L21.0506 18.541M21.0506 18.541V19.2894M21.0506 18.541V19.2894M21.0506 19.2894C21.0506 20.3022 20.6765 21.2856 19.9936 22.0603L21.0506 19.2894ZM18.6386 16.9575H18.637H3.1789C2.75667 16.9575 2.34799 17.1197 2.0437 17.4144C1.73875 17.7098 1.56371 18.1146 1.56371 18.541V19.292C1.56371 20.1391 1.8776 20.9554 2.4411 21.5938C4.28171 23.6838 7.12405 24.6813 10.9019 24.6813C14.6828 24.6813 17.5245 23.6836 19.3702 21.5958L19.3705 21.5955C19.9355 20.9556 20.2484 20.1379 20.2482 19.2894C20.2482 19.2893 20.2482 19.2892 20.2482 19.2892V18.5396V18.5388C20.2476 18.1136 20.0729 17.71 19.769 17.4152C19.4663 17.1216 19.0606 16.9585 18.6386 16.9575ZM10.9033 0.607315C11.7085 0.607315 12.5055 0.760959 13.2484 1.05903C13.9914 1.35709 14.6652 1.79347 15.2319 2.34236C15.7986 2.8912 16.247 3.54171 16.5526 4.25623C16.8581 4.9707 17.0151 5.73575 17.0151 6.50788C17.0151 7.28001 16.8581 8.04507 16.5526 8.75953C16.247 9.47405 15.7986 10.1246 15.2319 10.6734C14.6652 11.2223 13.9914 11.6587 13.2484 11.9567C12.5055 12.2548 11.7085 12.4084 10.9033 12.4084C9.27614 12.4084 7.71942 11.7822 6.57461 10.6734C5.43045 9.56523 4.7914 8.06643 4.7914 6.50788C4.7914 4.94933 5.43045 3.45053 6.57461 2.34236C7.71942 1.23354 9.27614 0.607315 10.9033 0.607315ZM10.9033 1.34505C10.2085 1.34505 9.52009 1.47757 8.87721 1.73549C8.23429 1.99341 7.6489 2.37195 7.15491 2.8504C6.66089 3.32889 6.26793 3.898 5.99947 4.52576C5.73098 5.15356 5.59252 5.82715 5.59252 6.50788C5.59252 7.18862 5.73098 7.8622 5.99947 8.49001C6.26793 9.11776 6.66089 9.68687 7.15491 10.1654C7.6489 10.6438 8.23429 11.0223 8.87721 11.2803C9.52009 11.5382 10.2085 11.6707 10.9033 11.6707C12.3056 11.6707 13.6543 11.1313 14.6516 10.1654C15.6496 9.19875 16.214 7.88352 16.214 6.50788C16.214 5.13224 15.6496 3.81702 14.6516 2.8504C13.6543 1.88443 12.3056 1.34505 10.9033 1.34505Z" fill="white" stroke="white" stroke-width="1.21463"/>
</svg>
