<svg width="29" height="27" viewBox="0 0 29 27" fill="none" xmlns="http://www.w3.org/2000/svg">
<mask id="path-1-outside-1_1_19" maskUnits="userSpaceOnUse" x="-0.342041" y="0" width="30" height="27" fill="black">
<rect fill="white" x="-0.342041" width="30" height="27"/>
<path d="M2.21351 24.4375H9.48263V11.9375H2.21351V24.4375ZM11.0382 24.4375H18.2777V2.5625H11.0382V24.4375ZM19.8333 24.4375H27.1024V15.0625H19.8333V24.4375ZM0.657959 23.475V12.9C0.657959 12.2052 0.904255 11.6109 1.39685 11.1172C1.88944 10.6234 2.48055 10.376 3.17018 10.375H9.48263V3.525C9.48263 2.83021 9.72892 2.23594 10.2215 1.74219C10.7141 1.24844 11.3052 1.00104 11.9948 1H17.3211C18.0117 1 18.6028 1.2474 19.0944 1.74219C19.586 2.23698 19.8323 2.83073 19.8333 3.52344V13.5H26.1457C26.8364 13.5 27.4275 13.7474 27.9191 14.2422C28.4106 14.737 28.6569 15.3307 28.658 16.0234V23.4766C28.658 24.1703 28.4117 24.7641 27.9191 25.2578C27.4265 25.7516 26.8354 25.999 26.1457 26H3.17018C2.47951 26 1.8884 25.7526 1.39685 25.2578C0.905292 24.763 0.658996 24.1698 0.657959 23.4781"/>
</mask>
<path d="M2.21351 24.4375H9.48263V11.9375H2.21351V24.4375ZM11.0382 24.4375H18.2777V2.5625H11.0382V24.4375ZM19.8333 24.4375H27.1024V15.0625H19.8333V24.4375ZM0.657959 23.475V12.9C0.657959 12.2052 0.904255 11.6109 1.39685 11.1172C1.88944 10.6234 2.48055 10.376 3.17018 10.375H9.48263V3.525C9.48263 2.83021 9.72892 2.23594 10.2215 1.74219C10.7141 1.24844 11.3052 1.00104 11.9948 1H17.3211C18.0117 1 18.6028 1.2474 19.0944 1.74219C19.586 2.23698 19.8323 2.83073 19.8333 3.52344V13.5H26.1457C26.8364 13.5 27.4275 13.7474 27.9191 14.2422C28.4106 14.737 28.6569 15.3307 28.658 16.0234V23.4766C28.658 24.1703 28.4117 24.7641 27.9191 25.2578C27.4265 25.7516 26.8354 25.999 26.1457 26H3.17018C2.47951 26 1.8884 25.7526 1.39685 25.2578C0.905292 24.763 0.658996 24.1698 0.657959 23.4781" fill="white"/>
<path d="M2.21351 24.4375H2.01351V24.6375H2.21351V24.4375ZM9.48263 24.4375V24.6375H9.68263V24.4375H9.48263ZM9.48263 11.9375H9.68263V11.7375H9.48263V11.9375ZM2.21351 11.9375V11.7375H2.01351V11.9375H2.21351ZM11.0382 24.4375H10.8382V24.6375H11.0382V24.4375ZM18.2777 24.4375V24.6375H18.4777V24.4375H18.2777ZM18.2777 2.5625H18.4777V2.3625H18.2777V2.5625ZM11.0382 2.5625V2.3625H10.8382V2.5625H11.0382ZM19.8333 24.4375H19.6333V24.6375H19.8333V24.4375ZM27.1024 24.4375V24.6375H27.3024V24.4375H27.1024ZM27.1024 15.0625H27.3024V14.8625H27.1024V15.0625ZM19.8333 15.0625V14.8625H19.6333V15.0625H19.8333ZM3.17018 10.375V10.175H3.16988L3.17018 10.375ZM9.48263 10.375V10.575H9.68263V10.375H9.48263ZM11.9948 1V0.8L11.9945 0.8L11.9948 1ZM19.8333 3.52344H20.0333V3.52314L19.8333 3.52344ZM19.8333 13.5H19.6333V13.7H19.8333V13.5ZM28.658 16.0234H28.858V16.0231L28.658 16.0234ZM26.1457 26V26.2L26.146 26.2L26.1457 26ZM2.21351 24.6375H9.48263V24.2375H2.21351V24.6375ZM9.68263 24.4375V11.9375H9.28263V24.4375H9.68263ZM9.48263 11.7375H2.21351V12.1375H9.48263V11.7375ZM2.01351 11.9375V24.4375H2.41351V11.9375H2.01351ZM11.0382 24.6375H18.2777V24.2375H11.0382V24.6375ZM18.4777 24.4375V2.5625H18.0777V24.4375H18.4777ZM18.2777 2.3625H11.0382V2.7625H18.2777V2.3625ZM10.8382 2.5625V24.4375H11.2382V2.5625H10.8382ZM19.8333 24.6375H27.1024V24.2375H19.8333V24.6375ZM27.3024 24.4375V15.0625H26.9024V24.4375H27.3024ZM27.1024 14.8625H19.8333V15.2625H27.1024V14.8625ZM19.6333 15.0625V24.4375H20.0333V15.0625H19.6333ZM0.857959 23.475V12.9H0.457959V23.475H0.857959ZM0.857959 12.9C0.857959 12.2584 1.08309 11.7149 1.53843 11.2584L1.25526 10.9759C0.725423 11.507 0.457959 12.152 0.457959 12.9H0.857959ZM1.53843 11.2584C1.99406 10.8018 2.53455 10.576 3.17048 10.575L3.16988 10.175C2.42656 10.1761 1.78482 10.4451 1.25526 10.9759L1.53843 11.2584ZM3.17018 10.575H9.48263V10.175H3.17018V10.575ZM9.68263 10.375V3.525H9.28263V10.375H9.68263ZM9.68263 3.525C9.68263 2.8834 9.90775 2.33986 10.3631 1.88344L10.0799 1.60093C9.55009 2.13201 9.28263 2.77702 9.28263 3.525H9.68263ZM10.3631 1.88344C10.8187 1.42675 11.3592 1.20096 11.9952 1.2L11.9945 0.8C11.2512 0.801123 10.6095 1.07013 10.0799 1.60093L10.3631 1.88344ZM11.9948 1.2H17.3211V0.8H11.9948V1.2ZM17.3211 1.2C17.9579 1.2 18.4981 1.42573 18.9525 1.88314L19.2363 1.60123C18.7076 1.06907 18.0656 0.8 17.3211 0.8V1.2ZM18.9525 1.88314C19.4072 2.34083 19.6323 2.88414 19.6333 3.52374L20.0333 3.52314C20.0322 2.77731 19.7647 2.13313 19.2363 1.60123L18.9525 1.88314ZM19.6333 3.52344V13.5H20.0333V3.52344H19.6333ZM19.8333 13.7H26.1457V13.3H19.8333V13.7ZM26.1457 13.7C26.7825 13.7 27.3228 13.9257 27.7772 14.3831L28.061 14.1012C27.5323 13.5691 26.8903 13.3 26.1457 13.3V13.7ZM27.7772 14.3831C28.2319 14.8408 28.457 15.3841 28.458 16.0237L28.858 16.0231C28.8568 15.2773 28.5894 14.6331 28.061 14.1012L27.7772 14.3831ZM28.458 16.0234V23.4766H28.858V16.0234H28.458ZM28.458 23.4766C28.458 24.117 28.2329 24.6601 27.7775 25.1166L28.0607 25.3991C28.5904 24.868 28.858 24.2236 28.858 23.4766H28.458ZM27.7775 25.1166C27.3219 25.5732 26.7814 25.799 26.1454 25.8L26.146 26.2C26.8894 26.1989 27.5311 25.9299 28.0607 25.3991L27.7775 25.1166ZM26.1457 25.8H3.17018V26.2H26.1457V25.8ZM3.17018 25.8C2.53337 25.8 1.99316 25.5743 1.53873 25.1169L1.25496 25.3988C1.78365 25.9309 2.42566 26.2 3.17018 26.2V25.8ZM1.53873 25.1169C1.08398 24.6591 0.858916 24.1163 0.857959 23.4778L0.457959 23.4784C0.459076 24.2233 0.726606 24.8669 1.25496 25.3988L1.53873 25.1169Z" fill="white" mask="url(#path-1-outside-1_1_19)"/>
</svg>
