<svg width="20" height="26" viewBox="0 0 20 26" fill="none" xmlns="http://www.w3.org/2000/svg">
<path d="M10.1583 1C9.04198 0.999919 7.93659 1.2084 6.90525 1.61353C5.8739 2.01867 4.9368 2.61252 4.14746 3.36118C3.35811 4.10984 2.73199 4.99864 2.30483 5.97683C1.87768 6.95502 1.65787 8.00343 1.65796 9.06219C1.65796 15.3718 8.14756 22.9644 9.84814 24.8297C9.93951 24.9288 10.0685 24.9896 10.207 24.9988C10.3454 25.008 10.4821 24.9649 10.5872 24.8789L10.6391 24.8297C12.3169 22.957 18.658 15.3718 18.658 9.06158C18.658 8.00292 18.4381 6.95462 18.011 5.97655C17.5838 4.99847 16.9577 4.10977 16.1685 3.36118C15.3792 2.61259 14.4422 2.01878 13.411 1.61365C12.3797 1.20852 11.2745 1 10.1583 1ZM10.1583 11.2499C9.58813 11.2499 9.03078 11.0895 8.55671 10.7891C8.08265 10.4887 7.71316 10.0617 7.49497 9.56205C7.27678 9.06245 7.21969 8.5127 7.33092 7.98232C7.44215 7.45194 7.71671 6.96476 8.11987 6.58238C8.52303 6.2 9.03669 5.9396 9.59589 5.8341C10.1551 5.7286 10.7347 5.78275 11.2615 5.98969C11.7882 6.19663 12.2384 6.54708 12.5552 6.99671C12.872 7.44634 13.041 7.97496 13.041 8.51573V8.5225C13.0391 9.24647 12.7346 9.94018 12.1942 10.4515C11.6538 10.9628 10.9216 11.2499 10.1583 11.2499Z" stroke="white" stroke-width="2" stroke-linecap="round" stroke-linejoin="round"/>
</svg>
