<svg width="13" height="14" viewBox="0 0 13 14" fill="none" xmlns="http://www.w3.org/2000/svg">
<path fill-rule="evenodd" clip-rule="evenodd" d="M6.5074 8.25925L10.8853 12.6372C11.1177 12.8695 11.4327 13 11.7613 13C12.0898 13 12.4049 12.8695 12.6372 12.6372C12.8695 12.4049 13 12.0898 13 11.7613C13 11.4327 12.8695 11.1177 12.6372 10.8854L8.25759 6.50742L12.6364 2.12948C12.7513 2.01445 12.8425 1.8779 12.9047 1.72763C12.9669 1.57736 12.9989 1.41631 12.9989 1.25368C12.9988 1.09104 12.9668 0.930009 12.9045 0.779769C12.8422 0.629528 12.751 0.493025 12.6359 0.378052C12.5209 0.263079 12.3844 0.171888 12.2341 0.109686C12.0838 0.0474837 11.9228 0.0154883 11.7601 0.0155266C11.5975 0.0155649 11.4365 0.0476361 11.2862 0.109909C11.136 0.172182 10.9995 0.263438 10.8845 0.378465L6.5074 4.75641L2.12946 0.378465C2.01528 0.260138 1.87868 0.165736 1.72763 0.100765C1.57658 0.0357949 1.4141 0.00155774 1.24968 5.19308e-05C1.08525 -0.00145388 0.922177 0.0298015 0.769961 0.0919946C0.617745 0.154188 0.479439 0.246073 0.363114 0.362288C0.246789 0.478504 0.154773 0.616723 0.0924367 0.768881C0.0301002 0.921038 -0.00130897 1.08409 4.17871e-05 1.24851C0.00139255 1.41294 0.0354761 1.57545 0.100304 1.72656C0.165132 1.87767 0.259406 2.01436 0.377625 2.12865L4.75722 6.50742L0.37845 10.8862C0.260232 11.0005 0.165958 11.1372 0.10113 11.2883C0.036302 11.4394 0.00221805 11.6019 0.000867287 11.7663C-0.000483475 11.9307 0.0309257 12.0938 0.0932622 12.246C0.155599 12.3981 0.247614 12.5363 0.363939 12.6525C0.480265 12.7688 0.61857 12.8606 0.770786 12.9228C0.923002 12.985 1.08608 13.0163 1.2505 13.0148C1.41493 13.0133 1.57741 12.979 1.72846 12.9141C1.87951 12.8491 2.01611 12.7547 2.13029 12.6364L6.5074 8.25925Z" fill="white"/>
</svg>
